<?xml version="1.0" encoding="UTF-8" standalone="no"?>
<!-- Created with Inkscape (http://www.inkscape.org/) -->

<svg
   xmlns:dc="http://purl.org/dc/elements/1.1/"
   xmlns:cc="http://creativecommons.org/ns#"
   xmlns:rdf="http://www.w3.org/1999/02/22-rdf-syntax-ns#"
   xmlns:svg="http://www.w3.org/2000/svg"
   xmlns="http://www.w3.org/2000/svg"
   xmlns:sodipodi="http://sodipodi.sourceforge.net/DTD/sodipodi-0.dtd"
   xmlns:inkscape="http://www.inkscape.org/namespaces/inkscape"
   width="600mm"
   height="400mm"
   viewBox="0 0 2125.9843 1417.3228"
   id="svg3917"
   version="1.1"
   inkscape:version="0.91 r13725"
   sodipodi:docname="spirals_tangle2_b.svg">
  <defs
     id="defs3919" />
  <sodipodi:namedview
     id="base"
     pagecolor="#ffffff"
     bordercolor="#666666"
     borderopacity="1.0"
     inkscape:pageopacity="0.0"
     inkscape:pageshadow="2"
     inkscape:zoom="0.23071667"
     inkscape:cx="1157.2636"
     inkscape:cy="708.66142"
     inkscape:document-units="mm"
     inkscape:current-layer="layer1"
     showgrid="true"
     inkscape:window-width="1436"
     inkscape:window-height="856"
     inkscape:window-x="4"
     inkscape:window-y="0"
     inkscape:window-maximized="1">
    <inkscape:grid
       type="xygrid"
       id="grid7591" />
  </sodipodi:namedview>
  <metadata
     id="metadata3922">
    <rdf:RDF>
      <cc:Work
         rdf:about="">
        <dc:format>image/svg+xml</dc:format>
        <dc:type
           rdf:resource="http://purl.org/dc/dcmitype/StillImage" />
        <dc:title />
      </cc:Work>
    </rdf:RDF>
  </metadata>
  <g
     inkscape:label="Layer 1"
     inkscape:groupmode="layer"
     id="layer1"
     transform="translate(0,364.96067)">
    <path
       style="color:#000000;font-style:normal;font-variant:normal;font-weight:normal;font-stretch:normal;font-size:medium;line-height:normal;font-family:sans-serif;text-indent:0;text-align:start;text-decoration:none;text-decoration-line:none;text-decoration-style:solid;text-decoration-color:#000000;letter-spacing:normal;word-spacing:normal;text-transform:none;direction:ltr;block-progression:tb;writing-mode:lr-tb;baseline-shift:baseline;text-anchor:start;white-space:normal;clip-rule:nonzero;display:inline;overflow:visible;visibility:visible;opacity:1;isolation:auto;mix-blend-mode:normal;color-interpolation:sRGB;color-interpolation-filters:linearRGB;solid-color:#000000;solid-opacity:1;fill:#800080;fill-opacity:1;fill-rule:evenodd;stroke:none;stroke-width:3.5433073;stroke-linecap:round;stroke-linejoin:miter;stroke-miterlimit:4;stroke-dasharray:none;stroke-dashoffset:0;stroke-opacity:1;color-rendering:auto;image-rendering:auto;shape-rendering:auto;text-rendering:auto;enable-background:accumulate"
       d="m 820.96526,-326.7998 c -7.6904,0.062 -15.3824,1.32507 -22.7539,3.81445 -6.8044,2.29789 -13.3356,5.64145 -19.3418,10.04687 -22.173,16.26354 -32.8744,42.93791 -31.5235,69.5586 -0.0463,-0.1037 -0.088,-0.20892 -0.1347,-0.3125 -19.3542,-42.88756 -65.6075,-65.1109 -110.0821,-59.19336 -10.2633,1.36559 -20.4326,4.22881 -30.1542,8.68359 -34.8379,15.96392 -57.1314,48.16409 -63.4629,83.65235 -4.9702,-34.95122 -24.504,-67.92371 -55.3321,-88.55274 -51.1636,-34.23675 -117.919,-26.9143 -163.2246,10.4336 -10.4551,8.61874 -19.7671,18.83682 -27.4824,30.51171 -45.6548,69.08531 -22.7086,163.702766 45.6523,208.408206 15.8529,10.36712 33.5371,17.7594 51.9727,21.91797 -3.4138,0.60972 -6.8063,1.51452 -10.1406,2.75 -34.3314,12.72097 -51.2247,53.49745 -38.961,88.50781 1.0855,3.09889 2.386,6.10872 3.8692,9.01562 -1.3885,-1.20669 -2.7952,-2.38823 -4.2383,-3.51757 -35.3329,-27.65138 -86.4666,-31.9487 -124.8945,-4.79688 -42.1992,29.81654 -54.9559,90.217034 -24.3262,132.925784 5.8235,8.12007 12.9187,15.01013 20.8457,20.54883 -17.1004,-6.89149 -35.7254,-10.17625 -54.4531,-9.31445 -12.3206,0.56695 -24.68337,2.92216 -36.67776,7.21093 -70.971884,25.377 -105.925344,106.80207 -80.558604,176.68357 8.13651,22.4149 21.91343,42.6092 39.67969,58.4864 -23.73461,22.0149 -29.06382,56.1779 -16.51562,83.6484 2.98406,6.5327 6.97995,12.6866 11.97851,18.209 29.563374,32.6613 82.685784,33.2954 116.316384,3.9336 34.9322,-30.4981 38.9732,-82.8102 11.5625,-117.8106 3.5851,-0.8096 7.1489,-1.8098 10.6739,-3.0195 0.4594,-0.1577 0.9113,-0.3269 1.3671,-0.4902 1.7597,32.8621 14.6762,64.7477 36.6661,89.3183 49.5787,55.3973 137.8553,63.101 193.7773,12.5664 9.4509,-8.5404 17.3715,-18.3184 23.6973,-28.9062 13.2869,-22.2391 19.5114,-48.0477 18.1172,-73.4512 1.202,3.1757 2.6259,6.2997 4.2812,9.3535 3.6426,6.7203 8.2397,12.6843 13.5469,17.7988 22.9974,22.163 59.342,28.3742 89.2734,11.0411 22.4526,-13.0022 36.2545,-37.1659 36.9141,-61.6328 4.929,25.1281 24.225,44.5757 47.9883,50.748 6.2604,1.6261 12.8303,2.3302 19.5293,1.9746 39.6159,-2.1029 70.2317,-38.8548 68.8203,-79.0293 -0.4339,-12.3501 -3.7851,-24.4434 -9.6309,-35.1055 4.4357,-0.9214 8.7852,-2.4815 12.916,-4.7656 21.1509,-11.6949 29.6538,-39.39112 16.7071,-61.21092 -11.2456,-18.95279 -36.2723,-27.26072 -55.2325,-16.25977 -16.1487,9.3697 -22.5726,30.96308 -12.0566,47.69727 8.727,13.88732 27.5687,19.91322 41.4941,11.12892 11.1482,-7.0324 15.5074,-22.5811 7.3555,-34.20509 -6.1891,-8.82521 -18.9557,-12.5988 -27.793,-5.91016 -3.0796,2.33084 -5.1633,5.8499 -5.7851,9.64453 -0.6219,3.79463 0.2953,7.95462 3.3144,11.15039 1.7998,1.90517 4.3645,3.18475 7.0352,3.46289 2.6706,0.27814 5.6134,-0.64969 7.2344,-3.27929 0.9154,-1.48504 0.9191,-3.12391 0.414,-4.78711 -0.2526,-0.83161 -0.7067,-1.73979 -1.6758,-2.33985 -0.9691,-0.60005 -2.3001,-0.57739 -3.3476,-0.0937 a 1.8040437,1.7408934 41.483562 1 0 1.5879,3.21875 c 0.024,0.0385 -0.009,-0.0147 0.0371,0.12891 0.1832,0.6031 -0.0485,1.92449 -0.0625,1.94726 -0.8978,1.45637 -2.2355,1.86559 -3.9453,1.6875 -1.7099,-0.17808 -3.6236,-1.1465 -4.7324,-2.32031 -2.184,-2.3118 -2.828,-5.19253 -2.3536,-8.08789 0.4745,-2.89535 2.144,-5.71587 4.4883,-7.49023 7.0825,-5.36042 17.5972,-2.24339 22.6934,5.02343 6.8897,9.82413 3.136,23.19946 -6.4434,29.24222 -12.158,7.6694 -28.8207,2.3406 -36.5254,-9.91995 -9.385,-14.93438 -3.594,-34.3971 10.9336,-42.82617 17.1907,-9.97429 40.0647,-2.3814 50.3223,14.90625 11.8795,20.02124 4.024,45.60537 -15.4746,56.38667 -22.2093,12.2802 -51.3188,2.4076 -64.1074,-19.9218 -14.3748,-25.09896 -4.4435,-56.81939 20.0371,-69.93753 27.2215,-14.5869 62.5761,-2.42744 77.8847,24.95117 4.9941,8.93163 7.6943,19.02578 7.8477,29.10157 a 1.8036808,1.7405432 41.483562 0 0 0.1777,0.77929 c 0.0174,0.19885 0.026,0.39908 0.0449,0.59766 2.9611,30.98074 25.9151,58.62344 59.0528,64.77934 36.4044,6.7627 74.2753,-15.9382 81.5078,-51.8555 6.3759,-31.66303 -14.4922,-64.28918 -47.9004,-69.96486 -28.9979,-4.92645 -59.0739,13.37101 -64.252,42.14454 -4.4061,24.48409 11.9924,49.63602 38.0352,53.37892 21.5851,3.1023 43.9074,-10.8158 46.9805,-32.46096 2.4556,-17.29674 -9.5179,-35.04024 -28.2207,-36.76953 -14.1588,-1.30913 -28.8533,8.30657 -29.668,22.86133 -0.2824,5.04493 1.4733,10.12928 4.7324,13.96289 3.2591,3.83368 8.1392,6.41547 13.8535,6.11137 3.3574,-0.1788 6.7997,-1.64823 9.2969,-4.03715 2.4973,-2.38891 4.0048,-5.95698 2.7891,-9.69336 -0.6357,-1.95369 -2.2532,-3.38425 -4.2285,-4.24023 -0.9876,-0.42803 -2.1681,-0.70024 -3.4161,-0.29688 -1.248,0.40328 -2.223,1.56936 -2.6035,2.9375 a 1.7405432,1.8036808 81.808147 1 0 3.4785,0.87305 c 0.1698,-0.61051 0.226,-0.50388 0.2383,-0.50781 0.012,-0.004 0.3215,-0.032 0.8008,0.17578 0.9588,0.41549 2.1849,1.81453 2.2891,2.13476 0.7893,2.42581 -0.0703,4.43307 -1.8692,6.1543 -1.7993,1.72123 -4.5827,2.89822 -6.9355,3.02344 -4.4999,0.23952 -8.2296,-1.72392 -10.8985,-4.86328 -2.6689,-3.13936 -4.1586,-7.45586 -3.9277,-11.58008 0.6917,-12.35741 13.4261,-20.68272 25.6895,-19.54883 16.5138,1.52688 27.2242,17.40297 25.0293,32.86328 -2.7794,19.57611 -23.1624,32.28201 -42.8457,29.45311 -23.9387,-3.4405 -39.1231,-26.72963 -35.0489,-49.36912 4.8158,-26.76007 32.9521,-43.87756 60.041,-39.2754 31.3464,5.32541 51.0266,36.08833 45.0235,65.90042 -6.8333,33.9346 -42.7655,55.4736 -77.2559,49.0664 -38.7483,-7.1982 -62.9276,-45.4573 -54.9726,-82.43947 8.8419,-41.10542 52.5849,-67.07398 94.4746,-58.84571 13.662,2.68358 26.5051,8.76989 37.0898,17.48047 a 1.7405432,1.8036808 81.808147 0 0 1.6719,0.35938 c 32.7411,31.4546 81.18504,41.60607 124.28324,28.50391 11.8004,-3.58741 23.1991,-8.91935 33.7656,-16.03321 62.5232,-42.0934 76.3224,-129.62272 34.5078,-191.091794 -13.6227,-20.02573 -32.3141,-36.40657 -53.8671,-47.41993 a 1.7718306,1.7718307 0 0 0 -1.4258,-0.10937 c 0.8505,-1.83209 1.592,-3.70016 2.2246,-5.59766 l -0,0 c 7.3512,-22.0504004 0.04,-47.86644 -20.7344,-62.10156 -3.3703,-2.30945 -6.9596,-4.17905 -10.6757,-5.63477 7.3304,-0.02856 14.7272,-1.11635 22.0019,-3.39062 7.1093,-2.22254 13.6726,-5.49796 19.5586,-9.61328 25.506,-17.83302 38.2628,-51.422036 27.3028,-83.294916 -12.0404,-35.01485 -50.4473,-56.79607 -85.2696,-45.4043 -5.5981,1.83137 -10.7716,4.47486 -15.4297,7.75391 1.84,-3.15222 3.4625,-6.45891 4.8145,-9.91797 12.2694,-31.39216 0.9144,-65.48052 -23.832,-84.35352 -5.7107,-4.35532 -12.13334,-7.90121 -19.14464,-10.41601 -37.1465,-13.32362 -78.837,4.94436 -98.5,38.90234 0.0977,-14.51985 -4.1042,-29.26938 -12.7402,-41.76758 -14.37,-20.79674 -37.4288,-31.42613 -60.5,-31.24023 z m 1.7558,3.61328 c 21.4128,0.33717 42.6117,10.42615 55.9141,29.67773 9.7589,14.12336 13.535,31.29404 11.5606,47.50586 -0.6863,1.5286 -1.3351,3.08094 -1.9336,4.66016 -2.084,5.49815 -3.5894,11.17988 -4.5313,16.93359 -4.2192,8.35756 -10.3328,15.77077 -18.3086,21.46094 -24.7561,17.66166 -60.8748,12.27127 -78.5449,-14.16211 -15.2702,-22.84331 -11.1453,-55.5189 11.3105,-70.84961 18.998,-12.97005 46.4602,-8.6283 59.3829,11.81445 10.6254,16.8088 7.3562,40.6062 -9.375,51.14258 -13.2136,8.32112 -32.0788,5.03405 -40.2207,-9.41406 -6.0463,-10.72939 -3.6521,-25.75637 7.3437,-31.4375 3.6698,-1.89605 8.2179,-2.29944 12.1738,-1.14649 3.9559,1.15296 7.2723,3.75401 8.8926,7.95899 0.847,2.19851 0.9099,5.22083 0.0742,7.5664 -0.8357,2.34558 -2.3149,3.9498 -4.8515,4.22071 -0.3348,0.0358 -2.1138,-0.51158 -2.8848,-1.2168 -0.3855,-0.3526 -0.4883,-0.64729 -0.4883,-0.66015 -0.001,-0.0128 -0.1207,-0.0194 0.3672,-0.42383 a 1.8036808,1.7405431 74.071997 1 0 -2.2187,-2.81836 c -1.0932,0.90629 -1.7591,2.27427 -1.6172,3.57812 0.1418,1.30387 0.8737,2.26766 1.6679,2.99414 1.5885,1.453 3.5548,2.34514 5.5977,2.12696 3.907,-0.41727 6.5471,-3.25039 7.707,-6.50586 1.1598,-3.25548 1.0937,-6.99738 -0.1152,-10.13477 -2.0576,-5.3397 -6.4094,-8.73855 -11.2402,-10.14648 -4.8307,-1.40796 -10.1867,-0.93262 -14.6758,1.38672 -12.9511,6.69134 -15.723,24.03226 -8.7422,36.41992 9.2212,16.36326 30.3086,20.04 45.0918,10.73047 18.4995,-11.64995 22.0798,-37.71172 10.4277,-56.14453 -14.0584,-22.23957 -43.7158,-26.92723 -64.2617,-12.9004 -24.1454,16.4842 -28.5532,51.41032 -12.207,75.86329 13.5872,20.32577 37.3084,28.95592 59.3437,25.14453 -3.9719,2.66273 -7.6635,5.81949 -10.9531,9.46289 -6.2822,6.9578 -10.859,15.29781 -13.3516,24.17773 -5.4439,-6.86397 -12.683,-12.35493 -21.1855,-15.64258 a 1.8036808,1.7405431 74.071997 0 0 -0.9317,-1.04882 c -12.2755,-6.1011 -23.0771,-15.33639 -31.1093,-26.70899 -24.628,-34.86994 -18.8038,-85.40392 15.0996,-110.27148 12.3917,-9.08908 27.1421,-13.42406 41.7929,-13.19336 z m -408.4082,5.60156 c 24.8669,-0.12643 49.8766,6.6928 71.8965,21.42773 54.5768,36.52071 72.7469,112.91418 35.2735,168.07032 -32.9488,48.496376 -101.3261,64.548376 -150.3614,30.599606 -42.4211,-29.369626 -56.3568,-89.741936 -25.9277,-132.650386 25.7802,-36.35315 78.163,-48.1819 114.9355,-21.26563 30.296,22.17571 40.0276,66.59683 16.6133,97.21875 -18.5464,24.25565 -55.0453,31.90965 -79.4902,11.98047 -18.2435,-14.87342 -23.8622,-43.53773 -7.3887,-61.75195 5.5539,-6.14079 13.6737,-10.16961 21.8203,-10.96875 8.1465,-0.79907 16.2372,1.54697 22.1621,8.08203 3.2046,3.53463 5.3684,9.0115 5.4004,14.07226 0.0315,5.06082 -1.8494,9.55334 -6.7109,12.07032 -1.248,0.64611 -4.8797,0.829 -7.1484,-0.0234 -1.1344,-0.42617 -1.8645,-1.03334 -2.127,-1.55274 -0.2624,-0.51947 -0.3565,-1.12439 0.4219,-2.46484 a 1.7718307,1.7718306 0 1 0 -3.0645,-1.7793 c -1.1783,2.02886 -1.3578,4.18253 -0.5195,5.8418 0.8382,1.65933 2.3941,2.65194 4.043,3.27148 3.2978,1.23899 7.2241,1.30278 10.0234,-0.14648 6.1063,-3.16145 8.665,-9.2188 8.627,-15.24023 -0.0375,-6.02141 -2.4517,-12.16068 -6.3204,-16.42774 -6.7276,-7.42031 -16.0722,-10.11924 -25.1328,-9.23047 -9.0607,0.88876 -17.9189,5.28316 -24.1015,12.11914 -17.9743,19.87364 -11.9203,50.81776 7.7754,66.875 26.122,21.2965 64.8546,13.17542 84.5449,-12.57617 24.7027,-32.30714 14.4894,-78.93278 -17.334,-102.22656 -38.4625,-28.15325 -93.0378,-15.83195 -119.918,22.07226 -31.6296,44.60134 -17.1915,107.1573 26.7989,137.613286 29.6772,20.54661 66.1376,23.39705 98.1015,12.20507 -14.6964,10.4878 -24.5905,27.99673 -25.123,47.11719 -0.1924,6.90768 0.8062,13.78552 2.8945,20.27734 0.1021,0.31733 0.213,0.63183 0.3203,0.94727 -7.4691,-6.41452 -16.3893,-10.90292 -25.8789,-13.12891 a 1.7718307,1.7718306 0 0 0 -1.3535,-0.7539 c -25.9215,-2.02879 -51.2379,-10.57118 -73,-24.80274 -66.7478,-43.65043 -89.1689,-136.103506 -44.6367,-203.490226 25.681,-38.86085 69.5568,-61.15549 113.8847,-61.38086 z m 238.1875,17.31055 c 38.0559,0.40895 74.9634,21.43829 91.4805,58.03906 20.464,45.34684 1.5417,101.75703 -44.6387,122.20703 -6.4174,2.84182 -13.0806,4.80315 -19.8203,5.93555 -7.6169,-1.44023 -15.48,-2.15191 -23.5234,-2.04688 -3.7322,0.0487 -7.4327,0.28603 -11.0938,0.69336 -23.4785,-5.80794 -44.2382,-21.49223 -54.4492,-45.10937 -15.4934,-35.83515 -0.2842,-80.18796 36.4121,-95.56446 31.0742,-13.02077 69.417,0.33095 82.2461,32.28516 10.5621,26.30774 -0.9367,58.66269 -28.1484,68.93164 -21.5318,8.12552 -47.934,-1.52317 -55.6211,-23.99023 -5.7268,-16.7382 2.08,-37.25725 19.7949,-42.32032 5.9514,-1.70095 12.7193,-1.04567 18.2051,1.66797 5.4857,2.71365 9.6619,7.37038 10.834,13.83594 0.6266,3.45677 -0.1611,7.78071 -2.1172,10.96484 -1.9562,3.18412 -4.8122,5.21572 -8.7988,4.89844 -0.8582,-0.0683 -3.2621,-1.36903 -4.3047,-2.72851 -0.5213,-0.67973 -0.6901,-1.27326 -0.6641,-1.5625 0.0259,-0.28924 0.0828,-0.57983 1.041,-1.0879 a 1.7718742,1.7718743 0 1 0 -1.6601,-3.13085 c -1.6617,0.88096 -2.7703,2.34117 -2.9102,3.90234 -0.1398,1.56118 0.5251,2.91927 1.3809,4.03516 1.7116,2.2318 4.2363,3.89662 6.8359,4.10351 5.3837,0.42848 9.6406,-2.56963 12.0996,-6.57226 2.4592,-4.00264 3.387,-9.02353 2.584,-13.45313 -1.3852,-7.64131 -6.4409,-13.2619 -12.75,-16.38281 -6.3092,-3.12092 -13.8973,-3.857 -20.75,-1.89844 -19.866,5.67789 -28.5073,28.36413 -22.1738,46.875 8.3874,24.5144 36.9329,34.95054 60.2265,26.16016 29.1967,-11.01799 41.4529,-45.504 30.1856,-73.56836 -13.6093,-33.8977 -54.0784,-47.98803 -86.9063,-34.23242 -38.6104,16.17855 -54.5437,62.65129 -38.2929,100.23828 9.5808,22.15962 28,37.6152 49.3672,44.9414 -15.7196,2.93377 -30.5062,9.09567 -43.4981,17.773436 a 1.772779,1.7727791 0 0 0 -0.4277,-0.45703 c -15.8713,-11.700366 -28.743,-27.350906 -37.043,-45.236326 -25.4544,-54.85081 -2.8158,-123.34369 52.8496,-148.85156 14.0905,-6.45677 29.1574,-9.45495 44.0488,-9.29492 z m 316.2989,6.77929 c 7.5778,0.15503 15.1946,1.49267 22.6152,4.1543 35.60694,12.77141 55.33104,53.5077 40.98444,90.21484 -12.7702,32.67353 -50.03454,51.81605 -82.46104,39.70118 -28.4873,-10.64308 -44.2202,-43.5989 -32.1914,-73.03125 10.395,-25.43499 39.7883,-40.29194 65.0567,-30.25196 21.37754,8.49401 33.13814,33.68575 23.41994,55.83203 -7.99064,18.20945 -29.54444,28.81017 -47.63674,20.83399 -14.2884,-6.29923 -22.1162,-23.77707 -14.6934,-38.60742 5.5124,-11.01326 19.3084,-17.43161 30.168,-11.49414 3.6243,1.98158 6.5029,5.52705 7.7598,9.45117 1.2568,3.92411 0.9545,8.12718 -1.625,11.82226 -1.3486,1.93192 -3.8168,3.67378 -6.2286,4.29297 -2.4118,0.61919 -4.5715,0.29101 -6.2148,-1.66015 -0.217,-0.25758 -0.7569,-2.03872 -0.6035,-3.07227 0.0766,-0.51681 0.2634,-0.76544 0.2734,-0.77344 0.01,-0.008 -0.0514,-0.11178 0.5567,0.0664 a 1.7405431,1.8036807 40.063213 1 0 1.0957,-3.41602 c -1.3628,-0.39933 -2.8677,-0.18675 -3.8692,0.66016 -1.0015,0.84687 -1.3928,1.99387 -1.5508,3.05859 -0.3161,2.12942 0.0437,4.25865 1.3672,5.83008 2.5312,3.00532 6.3577,3.6094 9.7051,2.75 3.3473,-0.8594 6.4113,-3.00673 8.3359,-5.76367 3.2756,-4.69217 3.6599,-10.20021 2.125,-14.99219 -1.5348,-4.79193 -4.924,-8.96665 -9.3574,-11.39062 -12.7906,-6.99323 -28.7177,0.40765 -35.082,13.12304 -8.4067,16.7962 0.3405,36.33339 16.3262,43.38086 20.0044,8.81919 43.61034,-2.79089 52.37304,-22.75976 10.5724,-24.09279 -2.1287,-51.29831 -25.24804,-60.48438 -27.1696,-10.79541 -58.5873,5.08524 -69.7149,32.3125 -7.5065,18.36705 -4.8861,37.95386 4.6406,53.31055 -1.9251,-2.47686 -4.1054,-4.79412 -6.5351,-6.91016 -7.4897,-6.52265 -16.4193,-10.48893 -25.7676,-12.09961 a 1.7405431,1.8036807 40.063213 0 0 -0.004,-0.0449 c -1.046,-7.85928 -0.941,-15.89569 0.2832,-23.79492 3.3661,-6.82021 5.5448,-14.21184 6.5156,-21.81445 13.5415,-29.68944 44.0248,-49.071 75.1817,-48.4336 z m -86.0508,77.7461 c -0.3346,5.28982 -0.1872,10.59407 0.4434,15.83203 -5.5611,-0.5907 -11.2208,-0.37187 -16.7754,0.63281 0.3421,-0.23319 0.6911,-0.45208 1.0293,-0.69336 6.1614,-4.39574 11.2544,-9.76694 15.3027,-15.77148 z m -127.2617,5.09179 c 2.1089,4.50538 4.6044,8.87078 7.5332,13.01758 6.3961,9.05611 14.4628,16.79353 23.6093,22.78321 -0.2726,-0.0375 -0.542,-0.082 -0.8164,-0.11524 -14.3142,-1.73557 -28.54,2.98346 -38.8652,11.91797 6.6826,-14.75812 9.6771,-31.2039 8.5391,-47.60352 z m 121.4746,13.92774 c 11.9743,9e-5 23.8172,3.89707 33.209,12.07617 19.3028,16.81046 21.7143,47.35139 3.6504,66.94922 -16.068,17.43241 -44.242,20.328196 -61.668,4.74414 -15.2959,-13.67918 -17.1013,-38.26415 -2.332,-53.80078 12.7494,-13.41183 34.8376,-15.53637 48.2168,-3.06445 11.3026,10.53598 12.5076,29.1811 1.0351,40.64843 -9.4137,9.4095 -25.4378,10.77219 -34.7578,1.41602 -7.3377,-7.36619 -7.9625,-20.10473 0.2051,-27.48242 6.0337,-5.45019 16.0589,-6.08673 21.2832,0.13672 1.7247,2.05443 2.6409,4.91015 2.4746,7.58203 -0.1662,2.67188 -1.3194,5.08748 -3.7246,6.69531 -1.209,0.80816 -3.1055,1.28081 -4.6465,1.09375 -1.5409,-0.18706 -2.6073,-0.79858 -3.0996,-2.24609 0.0128,0.0377 0.0679,-1.14716 0.3262,-1.63086 a 1.7405431,1.8036807 61.383356 0 0 2.1308,-2.87696 c -0.8679,-0.66963 -2.1189,-0.98214 -3.1621,-0.625 -1.0432,0.35714 -1.6592,1.11064 -2.0684,1.82617 -0.8182,1.43103 -1.1651,2.91979 -0.625,4.50782 0.9361,2.75234 3.4553,4.22586 5.9551,4.52929 2.4998,0.30348 5.0992,-0.32798 7.1446,-1.69531 3.4162,-2.28362 5.119,-5.88935 5.3418,-9.4707 0.2228,-3.58139 -0.9385,-7.21007 -3.2559,-9.9707 -6.6395,-7.90913 -19.0089,-7.13037 -26.4551,-0.4043 -9.799,8.85125 -9.0667,23.84314 -0.4199,32.52344 10.7948,10.8367 29.0985,9.27753 39.8711,-1.49024 12.9759,-12.97009 11.6247,-33.83053 -1.0488,-45.64453 -14.8757,-13.8668 -39.2194,-11.5241 -53.3028,3.29102 -16.2102,17.05243 -14.2423,43.83955 2.461,58.77734 3.6848,3.29539 7.8091,5.82123 12.1836,7.62891 -15.4301,0.93543 -30.8033,4.891186 -45.0997,12.033196 6.5892,-7.49722 11.1751,-16.718196 12.7247,-27.050776 0.7646,-5.09822 0.7088,-10.1759 -0.0743,-15.08399 -1.1491,-7.19945 -3.8682,-14.03196 -7.8554,-20.0332 a 1.7405431,1.8036807 61.383356 0 0 0.4453,-0.82617 c 2.2066,-9.0248 6.7072,-17.54475 13.0293,-24.54688 10.9002,-12.07258 26.5126,-18.51574 41.9082,-18.51562 z m 189.21874,1.49414 c 26.9938,0.29078 52.7881,18.98763 62.0567,45.94141 12.8157,37.26924 -8.5769,77.154066 -44.6817,88.441396 -40.1303,12.54581 -84.27224,-12.73739 -97.73824,-53.248046 -4.2201,-12.69523 -5.3282,-26.28173 -3.3047,-39.30468 10.8033,-2.08356 21.10264,-6.83533 29.94924,-13.67969 -7.4527,14.03529 -9.3947,31.05935 -3.4688,47.4668 9.9916,27.664316 40.7255,44.832026 68.3184,35.169916 23.4796,-8.22171 37.295,-34.881056 27.7285,-59.390626 -7.929,-20.31429 -31.0346,-32.89021 -51.3867,-24.90625 -16.2636,6.38008 -25.8102,25.54032 -18.1055,42.66993 5.8328,12.9678 21.4389,21.02057 34.5078,14.5625 4.53,-2.23848 8.0886,-6.26982 9.8203,-10.99414 1.7318,-4.72438 1.5767,-10.24468 -1.5019,-15.06836 -1.8088,-2.8342 -4.7829,-5.10442 -8.0918,-6.10157 -3.309,-0.99716 -7.1553,-0.55231 -9.8086,2.34571 -1.3874,1.51533 -1.8371,3.6269 -1.6094,5.76757 0.1138,1.07035 0.4583,2.23158 1.4239,3.11915 0.9656,0.88761 2.4617,1.16292 3.8398,0.82031 a 1.8036955,1.7405573 52.307933 1 0 -0.9551,-3.45899 c -0.6149,0.15288 -0.5491,0.0537 -0.5586,0.0449 -0.01,-0.009 -0.185,-0.26562 -0.2402,-0.78515 -0.1105,-1.03902 0.5011,-2.79459 0.7285,-3.04297 1.7226,-1.8815 3.8933,-2.12273 6.2773,-1.4043 2.3841,0.71845 4.7793,2.56277 6.0469,4.54883 2.4244,3.79864 2.5529,8.01015 1.1348,11.87891 -1.4181,3.86876 -4.4413,7.29115 -8.1445,9.12109 -11.096,5.4831 -24.6141,-1.50054 -29.6661,-12.73242 -6.8029,-15.12476 1.7407,-32.26415 16.2774,-37.9668 18.4068,-7.22083 39.5039,4.26266 46.7344,22.78711 8.7936,22.52938 -3.9984,47.214106 -25.709,54.816406 -25.6621,8.98598 -54.4161,-7.07469 -63.75,-32.917966 -10.8008,-29.9048 6.2824,-62.18134 35.1855,-71.63672 6.1688,-2.01805 12.4621,-2.93038 18.6914,-2.86328 z m -143.82614,19.5293 c 6.5975,8.68424 15.5745,15.62728 26.2539,19.61718 9.9101,3.70252 20.2307,4.64085 30.2265,3.29102 -1.8465,13.19345 -0.6266,26.87964 3.6426,39.72266 8.959,26.951986 30.88094,47.424966 56.46884,55.384756 -14.4655,0.99783 -28.2767,7.74204 -36.9747,20.03516 -13.95964,19.72972 -9.57174,48.36923 11.5762,62.38672 18.3691,12.17567 44.5198,8.7712 56.8086,-9.38086 10.4666,-15.46042043 6.8586,-37.69819 -9.8887,-48.19336 -13.8982,-8.7097 -33.484,-5.94095 -42.2031,8.02539 -6.9802,11.18088 -4.144,27.0782296 8.252,33.9999996 9.4113,5.2551604 22.5488,3.1007504 27.5976,-6.76563 1.7594,-3.43822 2.1041,-7.5118 1.0137,-11.19922 -1.0903,-3.6874196 -3.7255,-7.0348996 -7.834,-8.5995996 -2.4493,-0.93278 -5.314,-0.96964 -7.8398,-0.0586 -2.5258,0.91102 -4.7739,3.02479 -5.0899,6.09766 -0.1785,1.7353896 0.5308,3.2122396 1.709,4.4902296 0.5891,0.639 1.3938,1.26201 2.5274,1.38086 1.1336,0.11886 2.3217,-0.48194 3.0546,-1.37305 a 1.8036808,1.7405432 15.704005 1 0 -2.8281,-2.20703 c -0.039,-0.0248 0.011,0.01108 -0.092,-0.09961 -0.4273,-0.4634 -0.7937,-1.7546196 -0.791,-1.7812496 0.175,-1.70186 1.2032,-2.65108 2.8203,-3.23437 1.6172,-0.58329 3.7605,-0.54344 5.2695,0.03125 2.972,1.1319 4.8068,3.44427 5.6387,6.2578096 0.832,2.81355 0.5543,6.07993 -0.7851,8.69726997 -4.0462,7.90714003 -14.8698,9.67484043 -22.6192,5.34765003 -10.4766,-5.84999003 -12.9139,-19.5272896 -6.916,-29.1347596 7.6125,-12.19374 24.9349,-14.64254 37.2051,-6.95313 14.946,9.36641 18.1951,29.41001957 8.7793,43.31836 -11.1419,16.45801 -35.0417,19.57079 -51.7969,8.46485 -19.40474,-12.8620804 -23.45704,-39.31742 -10.5879,-57.50586 14.6581,-20.71697 45.1635,-24.48655 66.3906,-9.94141 23.8599,16.34918 28.712,49.2320096 12.3731,71.69141 -18.1683,24.97402 -55.2921,29.40013 -80.9844,11.40429 -8.38154,-5.87073 -15.20234,-13.78671 -19.72264,-22.79297 a 1.8036808,1.7405432 15.704005 0 0 -0.8106,-0.82812 c 0.7166,-10.4277104 -0.0362,-20.9983904 -2.3633,-31.33398 -2.2743,-10.10099 -6.035,-19.97553 -11.3379,-29.26172 -16.8527,-29.51183 -45.5462,-48.05584 -76.8711,-54.070316 9.2836,-2.31562 18.0426,-7.26597 24.8184,-14.61718 15.7977,-17.13919 17.0701,-41.92644 5.9102,-60.3125 z m -379.377,3.70312 c 1.6131,10.68106 4.7146,21.24885 9.4102,31.36719 8.4774,18.26778 21.5634,34.24224 37.705,46.257806 -19.2527,13.72897 -34.2291,33.1059 -41.9238,55.66406 0.0371,-0.52527 0.0795,-1.0497 0.0996,-1.57812 0.8896,-23.32172 -14.2742,-43.02545 -34.7383,-49.74024 -4.7225,-1.54956 -9.7259,-2.40583 -14.8808,-2.45703 -4.1848,-0.04153 -8.2656,0.44027 -12.2031,1.35743 14.8513,-8.46419 27.9845,-20.267346 37.9687,-34.962896 9.692,-14.26535 15.7743,-29.89897 18.5625,-45.9082 z m 237.9336,0.17188 c 1.4645,0.0334 2.9333,0.13805 4.4043,0.3164 26.4592,3.20811 44.4251,28.02427 40.6289,53.33789 -4.2219,28.151566 -32.6947,47.578306 -61.3633,43.802736 -9.3532,-1.23176 -18.3026,-4.80016 -25.834,-10.24024 a 1.7405431,1.8036807 78.197638 0 0 -0.664,-0.30468 c -14.2989,-12.77632 -31.4487,-22.320926 -50.3535,-27.314456 4.4221,-1.15823 8.7876,-2.6677 13.0488,-4.55469 12.7254,-5.63514 23.4552,-13.88311 31.9629,-23.83789 -0.4356,1.6539 -0.7831,3.34405 -1.0196,5.07618 -3.0314,22.20243 12.8388,43.873546 36.2364,46.345696 20.3277,2.14781 40.3805,-11.852596 42.7148,-32.054686 1.9888,-17.21144 -10.5105,-33.97042 -28.7988,-35.43164 -15.1829,-1.21309 -30.1282,9.46754 -31.3203,24.7168 -0.9549,12.21483 8.2091,24.103 21.4082,24.48828 10.03,0.2928 19.9502,-7.13275 19.8769,-17.45898 -0.026,-3.60431 -1.4926,-7.11906 -3.9843,-9.70118 -2.4917,-2.58208 -6.1256,-4.22443 -10.2071,-3.74804 -2.4438,0.28523 -4.8326,1.48993 -6.539,3.34179 -1.7065,1.85182 -2.6695,4.60621 -1.5977,7.3086 0.6184,1.55922 1.8476,2.46839 3.3984,3.02734 0.7754,0.2795 1.734,0.4553 2.7598,0.0508 1.0258,-0.40449 1.7754,-1.45482 2.002,-2.52734 a 1.7405431,1.8036807 78.197638 0 0 -3.4883,-0.8086 c -0.5103,-0.20075 -1.3193,-1.06825 -1.3047,-1.03125 -0.5637,-1.42124 -0.1496,-2.57724 0.9023,-3.71875 1.0519,-1.14151 2.8037,-2.01304 4.2481,-2.18164 2.8736,-0.3354 5.3169,0.75722 7.1758,2.6836 1.8589,1.92638 3.0142,4.69467 3.0332,7.37695 0.058,8.12541 -7.988,14.13963 -16.1153,13.90234 -11.0017,-0.32113 -18.7869,-10.42345 -17.9765,-20.78906 1.0292,-13.1659 14.113,-22.51709 27.3808,-21.45703 16.1693,1.29192 27.3401,16.26766 25.5664,31.61719 -2.0995,18.16992 -20.2931,30.874076 -38.6953,28.929686 -21.3178,-2.25237 -35.8814,-22.140906 -33.1054,-42.472656 2.9648,-21.71533 23.652,-37.19117 45.6191,-36.68945 z m -136.2422,59.97656 c 11.2756,2.7024 23.1292,3.23392 34.7832,1.36523 55.7196,10.852636 97.7833,62.156176 98.207,120.2675756 0.5348,73.3345004 -62.3053,132.6071944 -134.7207,132.7871144 -23.2128,0.0576 -46.3117,-5.78434 -66.789,-16.70898 -11.8503,-24.80205 -32.3457,-45.655054 -58.8164,-57.210944 -18.1209,-7.91076 -38.102,-11.21155 -57.7989,-9.7168 7.1235,-13.99071 8.7797,-31.02483 3.4668,-46.70703 -2.5428,-7.5057104 -6.4041,-14.1360904 -11.2168,-19.7597704 a 1.740543,1.8036807 20.900018 0 0 -0.1796,-0.5664 c -4.1809,-8.2967996 -6.2881,-17.6985996 -6.0254,-27.1289096 0.8049,-28.90497 24.4881,-53.94849 52.9531,-53.66601 25.5955,0.25403 47.2581,21.91717 46.2422,48.55078 -0.9037,23.69078 -20.4525,44.1842796 -43.8242,43.6445296 -20.5149,-0.47378 -37.8499,-18.0005296 -36.7032,-39.4062496 0.9898,-18.47822 16.4103,-34.4327 34.6836,-33.63281 15.4369,0.67572 28.4588,14.07197 27.1778,30.24218 -1.0512,13.26848 -12.3546,24.71 -25.5176,23.64454 -10.3633,-0.83885 -19.1081,-10.12108 -17.6856,-21.03516 1.0508,-8.06261 8.2613,-15.05852 16.2754,-13.7168 2.6455,0.44292 5.1965,2.02196 6.8047,4.16211 1.6081,2.14014 2.3011,4.72533 1.5156,7.50977 -0.3949,1.39958 -1.5326,2.99148 -2.8261,3.84961 -1.2934,0.85813 -2.5002,1.08601 -3.8145,0.30468 0.0343,0.02034 -0.693,-0.91749 -0.8105,-1.45312 a 1.740543,1.8036807 20.900018 0 0 -0.2481,-3.57031 c -1.0949,0.05412 -2.2489,0.62724 -2.8105,1.57617 -0.5616,0.94893 -0.5421,1.92258 -0.3887,2.73242 0.3067,1.61966 1.0113,2.97681 2.4531,3.83398 2.499,1.48564 5.3705,0.97223 7.4688,-0.41992 2.0984,-1.39214 3.6659,-3.56173 4.334,-5.92968 1.1157,-3.95478 0.0696,-7.8013 -2.086,-10.66993 -2.1557,-2.86866 -5.3943,-4.87553 -8.9492,-5.4707 -10.1847,-1.70514 -19.088,6.91711 -20.3848,16.86719 -1.7066,13.09397 8.5847,24.02125 20.7969,25.00976 15.2459,1.23407 28.1546,-11.8338 29.3574,-27.01757 1.4489,-18.28928 -13.1222,-33.27943 -30.4316,-34.03711 -20.317,-0.88934 -37.3129,16.69774 -38.4063,37.10937 -1.2584,23.49411 17.6308,42.5900596 40.0333,43.1074196 18.9596,0.43787 35.5261,-11.78858 43.1132,-28.6816396 -1.0662,6.40084 -1.5628,12.9846996 -1.4277,19.7070296 1.108,55.1167804 46.7354,102.7832744 102.8984,101.1601604 48.7067,-1.40767 90.7915,-41.99226 88.7911,-91.7539104 -1.7003,-42.2958596 -37.2562,-78.8115896 -80.6172,-76.4160096 -35.8838,1.98237 -66.8504,32.52522 -64.0313,69.48632957 2.2478,29.46985043 27.8142,54.92889043 58.375,51.63671043 23.0532,-2.4835 43.078,-23.14 39.2149,-47.2949204 -1.33,-8.31614 -5.921,-16.0886496 -12.418,-21.2831996 -6.497,-5.19444 -15.0136,-7.78711 -23.8711,-5.45312 -5.1067,1.3456 -10.0135,4.8465 -13.0508,9.45312 -3.0373,4.6066196 -4.1042,10.5671996 -0.9863,16.0585896 1.4541,2.56102 4.4958,4.45708 7.6719,5.15821 1.5881,0.35056 3.3068,0.37029 4.8183,-0.50782 1.5114,-0.8782 2.4705,-2.67356 2.5801,-4.83984 a 1.7718305,1.7718308 0 1 0 -3.5391,-0.17969 c -0.069,1.37118 -0.4149,1.72041 -0.8222,1.95703 -0.4073,0.23662 -1.2222,0.34143 -2.2735,0.10938 -2.1027,-0.46419 -4.7638,-2.40342 -5.3554,-3.44531 -2.4258,-4.27245 -1.6454,-8.55483 0.8632,-12.3593796 2.5084,-3.80464 6.8454,-6.88478 10.9961,-7.97851 7.702,-2.02951 14.9763,0.17597 20.7559,4.79687 5.7795,4.6208096 9.9489,11.6817096 11.1309,19.0722696 3.5098,21.9456404 -14.9052,40.9301404 -36.0957,43.2128904 -28.4094,3.06048 -52.3565,-20.79055 -54.461,-48.38281043 -2.6578,-34.84568957 26.7016,-63.80168957 60.6953,-65.67968957 41.27,-2.27998 75.255,32.6255 76.8789,73.0214796 1.9171,47.6878804 -38.5525,86.7158604 -85.3515,88.0683604 -54.1022,1.56354 -98.1865,-44.48892 -99.2559,-97.6914104 -1.1383,-56.6266396 44.0082,-103.2910656 98.6543,-109.6913956 z m 223.0645,12.484366 c 38.8861,-0.45204 77.2865,18.69665 97.6875,54.42188 27.328,47.8557796 12.1913,111.9058 -36.4825,139.33008 -43.3441,24.421304 -101.2137,10.601454 -125.6953,-33.57422 -21.5192,-38.83002 -9.01,-90.52719 30.668,-112.0625 34.3129,-18.62335 79.8441,-7.42704 98.4277,27.7539 15.7365,29.7911796 5.8527,69.17294 -24.832,84.79688 -25.2625,12.86313 -58.5143,4.2886 -71.166,-21.90039 -10.0108,-20.72253 -2.7499,-47.8796704 18.9433,-57.53711 16.1616,-7.19491 37.2954,-1.2463 43.9161,15.9472696 2.2239,5.7762 2.1732,12.5775604 -0.0411,18.2832004 -2.2143,5.70564 -6.4828,10.28032 -12.8183,12.02344 -3.3872,0.93199 -7.7637,0.53396 -11.1094,-1.13086 -3.3457,-1.66482 -5.6211,-4.33109 -5.6601,-8.33008 -0.008,-0.86085 1.0708,-3.37178 2.332,-4.53125 0.6306,-0.57978 1.2096,-0.80079 1.5,-0.80078 0.2904,1.1e-4 0.5823,0.03012 1.1738,0.93945 a 1.7718305,1.7718308 0 1 0 2.9707,-1.92969 c -1.0254,-1.5766 -2.5771,-2.5524404 -4.1445,-2.5527304 -1.5674,-1.9e-4 -2.8613,0.7846004 -3.8965,1.7363304 -2.0705,1.90356 -3.5035,4.56418 -3.4785,7.17187 0.0527,5.40052 3.4193,9.37588 7.625,11.46875 4.2058,2.09276 9.2885,2.56933 13.6289,1.375 7.4876,-2.0602 12.633,-7.5962 15.1797,-14.1582 2.5468,-6.562 2.606,-14.1849004 0.0449,-20.8359404 -7.4246,-19.2813796 -30.7888,-25.8690196 -48.6621,-17.9121096 -23.67,10.53742 -31.5234,39.89823 -20.6934,62.31641 13.5745,28.09922 49.0136,37.23575 75.9629,23.51367 32.5509,-16.57422 42.984,-58.1350604 26.3594,-89.60742 -19.553,-37.01611 -67.2636,-48.74664 -103.2539,-29.21289 -41.4899,22.5187 -54.5234,76.38795 -32.0762,116.89257 3.6965,6.67018 8.1244,12.67076 13.125,17.98438 -2.4187,-1.26213 -4.9444,-2.33558 -7.5586,-3.19336 -4.7225,-1.54956 -9.7279,-2.40583 -14.8828,-2.45703 -12.9325,-0.12834 -24.9115,4.61449 -34.4941,12.46289 15.753,-22.00035 25.0795,-48.7134 24.8691,-77.5683604 -0.093,-12.73776 -2.1278,-25.1563896 -5.8281,-36.9218696 -1.5761,-5.0116 -3.466,-9.89968 -5.625,-14.64844 10.2928,-17.54101 25.0921,-32.34311 42.7051,-42.51367 17.1825,-9.92194 36.2884,-14.8183 55.2793,-15.03907 z m -120.2286,23.8125 c 5.2313,2.30377 10.808,3.88367 16.5411,4.63868 9.539,1.25625 19.0525,0.10839 27.7656,-2.97657 -9.3232,8.12799 -17.3944,17.67179 -23.875,28.23242 -5.3964,-10.90528 -12.3077,-20.97018 -20.4317,-29.89453 z m -341.83,50.40235 c 23.3846,0.05223 45.914,14.58185 54.041,38.57031 9.2565,27.32277 -4.0668,59.09948 -30.8789,68.63477 -23.546,8.37369 -50.876,-4.03294 -58.875,-28.89649 -6.9092,-21.4761 3.7116,-46.3498804 24.8847,-53.39062043 17.901,-5.95265997 38.5837,3.65304003 44.17,22.66992043 4.5891,15.62199 -3.3315,33.62619 -18.8575,38.1582 -12.2448,3.57419 -26.3303,-3.23743 -29.4824,-16.39258 -2.3353,-9.74645 2.8931,-20.96994 12.7422,-22.95507 3.2712,-0.65933 6.9124,0.03749 9.7305,1.81054 2.818,1.77306 4.7962,4.50364 5.1211,8.11133 0.167,1.85435 -0.451,4.2123 -1.5996,5.82031 -1.1486,1.608 -2.5638,2.47668 -4.5254,2.13672 -0.1282,-0.02221 -1.4116,-0.82998 -1.8145,-1.48437 -0.0963,-0.16004 -0.1391,-0.28394 -0.1621,-0.35938 -0.0692,0.03026 -0.0448,0.01454 -0.0332,-0.05273 0.009,-0.05113 0.009,-0.02605 0.0332,0.05273 0.0338,-0.01476 0.0389,-0.01597 0.1758,-0.07617 a 1.7405431,1.8036808 0 1 0 -1.3594,-3.32031 c -1.1374,0.50005 -2.0752,1.53299 -2.2773,2.71289 -0.2021,1.1799 0.1976,2.18353 0.6894,2.98242 0.9839,1.59778 2.3532,2.78603 4.1739,3.10156 3.3196,0.57531 6.1883,-1.15286 7.8984,-3.54687 1.71,-2.39401 2.5248,-5.44432 2.2676,-8.30078 -0.4339,-4.81881 -3.1919,-8.60105 -6.7813,-10.85938 -3.5894,-2.2583 -8.0261,-3.11105 -12.2012,-2.26953 -12.0064,2.41997 -18.2338,15.76774 -15.455,27.36523 3.6643,15.29297 19.7775,23.09003 33.8027,18.9961 17.5321,-5.11755 26.3747,-25.21429 21.2441,-42.67969 -6.1855,-21.05640043 -28.8848,-31.60073 -48.5644,-25.0566404 -23.1143,7.68625 -34.6253,34.6456004 -27.1231,57.9648404 8.6395,26.85443 37.9819,40.17431 63.3067,31.16797 11.9254,-4.24106 21.3353,-12.56645 27.5683,-22.93359 a 1.7718307,1.7718306 0 0 0 0.6602,0.05273 c 19.6391,-1.76098 39.6521,1.42565 57.7227,9.31446 25.3403,11.0624 45.0369,30.929084 56.5918,54.585934 a 1.7721096,1.7721099 0 0 0 0.8867,1.9336 c 0.0174,0.009 0.0353,0.0179 0.0527,0.0273 12.8746,27.66648 14.705,60.24554 1.5742,89.93359 -22.2912,50.3995 -82.8227,76.23816 -133.7851,53.34571 -45.3821,-20.38569 -68.6109,-75.1618 -47.5918,-121.08594 18.4757,-40.36708 67.5053,-60.986344 108.3886,-41.83789 35.3552,16.55931 53.3734,59.84706 36.0918,95.68555 -14.6339,30.34799 -52.1947,45.76945 -82.9824,30.34961 -25.3474,-12.69507 -38.1853,-44.54242 -24.6191,-70.26954 10.7345,-20.35709 36.8999,-30.63365 57.5488,-18.9082 15.3835,8.73562 23.1392,29.27263 13.2324,44.80664 -3.3283,5.21868 -8.8302,9.21354 -14.7363,10.81836 -5.9061,1.60481 -12.1196,0.88806 -17.2832,-3.17578 -2.7607,-2.17271 -5.0393,-5.93255 -5.6855,-9.61328 -0.6461,-3.68079 0.1486,-7.09289 3.3437,-9.49805 0.6878,-0.51776 3.3495,-1.14112 5.0313,-0.81445 0.8409,0.16334 1.3608,0.49872 1.5332,0.73242 0.1726,0.23377 0.3221,0.4863 -0.0586,1.50195 a 1.7718307,1.7718306 0 1 0 3.3164,1.24414 c 0.6601,-1.7611 0.5239,-3.58802 -0.4063,-4.8496 -0.9302,-1.26159 -2.3304,-1.83734 -3.7109,-2.10547 -2.7609,-0.53633 -5.7525,-0.11136 -7.836,1.45703 -4.3148,3.24811 -5.5153,8.31641 -4.7031,12.94336 0.8122,4.62694 3.4449,9.00094 6.9824,11.78515 6.1025,4.80286 13.6138,5.66009 20.4063,3.81446 6.7925,-1.84569 12.9607,-6.32492 16.793,-12.33399 11.11,-17.42038 2.544,-40.1322 -14.4688,-49.79297 -22.5305,-12.79388 -50.8207,-1.68688 -62.4336,20.33594 -14.5558,27.60376 -0.8739,61.54707 26.166,75.08984 32.6603,16.3577 72.3,0.0822 87.7598,-31.97851 18.1829,-37.70787 -0.6938,-83.06474 -37.7773,-100.4336 -42.7502,-20.022934 -93.8428,1.46438 -113.1153,43.57227 -1.362,2.97593 -2.5436,5.98622 -3.5547,9.02149 0.6318,-22.57477 -5.3499,-45.39731 -18.832,-65.271494 a 1.7406098,1.8037499 0 0 0 -0.1699,-2.5332 c -8.3409,-7.60463 -14.8081,-17.35928 -18.5977,-28.17774 -11.6176,-33.16588 4.4113,-71.8596504 36.8594,-83.88281 6.3844,-2.36565 12.9992,-3.48533 19.5469,-3.4707 z m 575.9863,44.83008 c 4.7099,8.09315 11.2099,15.19577 19.00004,20.65234 7.3416,5.14232 15.5594,8.5474 24.0234,10.28125 -19.6321,0.13505 -39.40174,5.6974 -56.54684,16.92383 -3.8815,2.54157 -7.5337,5.29809 -10.9668,8.23633 13.6463,-15.8367 21.9763,-35.53626 24.4902,-56.09375 z m 109.13094,1.82031 a 1.7718306,1.7718307 0 0 0 0.914,1.04492 c 21.0243,10.74312 39.2688,26.73561 52.5488,46.25781 40.7304,59.875294 27.2777,145.205764 -33.5566,186.162114 -54.759,36.86618 -132.60404,24.43437 -169.66214,-31.30078 -33.0058,-49.64035 -21.594,-120.00749 29.043,-153.164064 44.51864,-29.15034 107.41754,-18.75895 136.66794,26.78125 25.3019,39.392734 15.9295,94.832204 -24.5156,120.169924 -34.2608,21.46338 -82.25684,13.11225 -103.67194,-22.24023 -17.6396,-29.11955 -10.3117,-69.69896 19.9512,-87.17579 23.96354,-13.838854 57.17064,-7.53496 70.68174,17.64258 10.0778,18.7799 4.8029,44.69612 -15.293,54.1875 -6.7676,3.19638 -14.9506,3.74024 -22.0274,1.57813 -7.0768,-2.16209 -13.003,-6.92072 -15.6757,-14.42383 -1.4403,-4.04353 -1.3455,-9.36176 0.3789,-13.58008 1.7243,-4.21829 4.8188,-7.27998 9.7148,-7.68945 1.194,-0.0998 4.2951,0.99908 5.8652,2.47265 0.7851,0.73676 1.1564,1.46969 1.1914,1.93946 0.034,0.46977 -0.058,0.9519 -1.1503,1.7832 a 1.7718306,1.7718307 0 1 0 2.1464,2.81836 c 1.7263,-1.3133 2.6675,-3.11797 2.5391,-4.86133 -0.1284,-1.74333 -1.1149,-3.15073 -2.3008,-4.26367 -2.3716,-2.22588 -5.6531,-3.66537 -8.5879,-3.41992 -6.2928,0.5263 -10.6113,4.77138 -12.6992,9.8789 -2.0879,5.10753 -2.2057,11.1345 -0.4336,16.10938 3.0735,8.62875 10.0194,14.1945 17.9746,16.625 7.9553,2.43048 16.9649,1.83498 24.5801,-1.76172 22.1189,-10.44689 27.8622,-38.63949 16.8984,-59.07031 -14.5342,-27.084174 -49.98,-33.813784 -75.57424,-19.03321 -32.1001,18.5378 -39.8311,61.34149 -21.2109,92.08008 22.5003,37.14375 72.71394,45.87906 108.58594,23.40625 42.204,-26.43956 51.9466,-84.08929 25.6133,-125.087894 -15.8126,-24.61874 -41.0476,-39.32704 -68.1152,-43.51172 17.5225,-0.98411 34.3522,-8.9812 45.0566,-23.69531 1.5553,-2.13787 2.9256,-4.36463 4.1231,-6.6582 z m -811.49814,27.89258 c 32.768,0.13049 65.3026,16.09584 85.0156,44.33984 35.045,50.210914 19.828,120.725694 -29.9238,155.095704 -16.2228,11.20713 -35.2528,18.17182 -54.8652,20.20899 a 1.7718306,1.7718309 0 0 0 -1.3438,0.80664 c -9.8673,-17.08171 -23.6664,-31.06104 -39.791,-41.36719 25.2883,9.01183 54.299,6.52653 77.3906,-10.34375 33.0655,-24.15672 42.8977,-72.29245 17.8223,-105.81445 -21.3202,-28.501704 -63.3457,-36.874874 -92.2637,-14.558604 -23.9416,18.475984 -30.8634,54.414054 -11.2851,78.714854 15.6199,19.38765 45.5144,24.86471 65.1738,7.98828 14.8448,-12.74346 18.8982,-36.67555 4.6543,-51.64258 -4.9134,-5.1628 -11.8253,-8.37567 -18.8457,-8.88476 -7.0204,-0.50909 -14.2284,1.76853 -19.2969,7.65234 -2.9381,3.41082 -4.6837,8.20942 -4.5937,12.90625 0.09,4.69684 2.24,9.4422 7.0976,11.80273 2.3455,1.13976 5.3638,0.98349 7.9707,-0.0723 1.3035,-0.52785 2.5672,-1.36081 3.2383,-2.77735 0.6711,-1.41647 0.4543,-3.23604 -0.5312,-4.83789 a 1.7718306,1.7718309 0 1 0 -3.0176,1.85547 c 0.5683,0.92382 0.4719,1.20238 0.3476,1.46485 -0.1244,0.26242 -0.5712,0.69017 -1.3652,1.01171 -1.588,0.64307 -4.3214,0.5423 -5.0957,0.16602 -3.5969,-1.74793 -5.0301,-4.94531 -5.1016,-8.68164 -0.072,-3.73638 1.4436,-7.86167 3.7364,-10.52344 4.2886,-4.97847 10.2493,-6.87624 16.3535,-6.43359 6.1042,0.44264 12.2719,3.30924 16.539,7.79297 12.7015,13.34631 9.0268,34.99059 -4.3964,46.51367 -18.0176,15.46698 -45.6689,10.39785 -60.1075,-7.52344 -18.2472,-22.64872 -11.7535,-56.36801 10.6895,-73.6875 27.2601,-21.036814 67.0805,-13.102164 87.2617,13.87695 23.8323,31.86014 14.4482,77.7992 -17.0762,100.83008 -36.4533,26.63195 -88.5257,15.79643 -114.3984,-20.27929 -29.4343,-41.04204 -17.1392,-99.256044 23.4922,-127.964854 17.1103,-12.0896 36.8548,-17.71306 56.5156,-17.63476 z m 511.416,29.06054 c 25.5955,0.25403 47.2581,21.917184 46.2422,48.550784 -0.9037,23.69078 -20.4525,44.18429 -43.8242,43.64454 -20.5149,-0.47378 -37.8498,-18.00054 -36.7031,-39.40625 0.9898,-18.47822 16.4103,-34.432714 34.6836,-33.632824 15.4369,0.67572 28.4587,14.071974 27.1777,30.242194 -1.0512,13.26848 -12.3526,24.70999 -25.5156,23.64453 -10.3633,-0.83885 -19.11,-10.12108 -17.6875,-21.03515 1.0508,-8.06261 8.2632,-15.05852 16.2773,-13.7168 2.6455,0.44292 5.1946,2.02196 6.8028,4.16211 1.6081,2.14014 2.3011,4.72728 1.5156,7.51172 -0.3949,1.39958 -1.5307,2.98952 -2.8242,3.84765 -1.2934,0.85813 -2.5021,1.08602 -3.8164,0.30469 0.0343,0.0203 -0.6931,-0.91749 -0.8106,-1.45312 a 1.740543,1.8036807 20.900018 0 0 -0.248,-3.57032 c -1.0949,0.0541 -2.249,0.62725 -2.8106,1.57618 -0.5616,0.94892 -0.5401,1.92258 -0.3867,2.73242 0.3067,1.61966 1.0094,2.9768 2.4512,3.83398 2.499,1.48564 5.3704,0.97223 7.4687,-0.41992 2.0984,-1.39214 3.6659,-3.56174 4.334,-5.92969 1.1157,-3.95478 0.0697,-7.80129 -2.0859,-10.66992 -2.1557,-2.86866 -5.3944,-4.87553 -8.9493,-5.4707 -10.1847,-1.70514 -19.086,6.9171 -20.3828,16.86718 -1.7066,13.09397 8.5828,24.02126 20.795,25.00977 15.2459,1.23407 28.1546,-11.8338 29.3574,-27.01758 1.4489,-18.28928 -13.1203,-33.279434 -30.4297,-34.037114 -20.317,-0.88934 -37.3129,16.697754 -38.4063,37.109384 -1.2585,23.49411 17.6288,42.59006 40.0313,43.10742 25.3937,0.58646 46.5026,-21.54166 47.4805,-47.17773 0.4718,-12.37033 -3.573,-23.72248 -10.5293,-32.658214 7.0872,4.60542 14.7633,8.215144 22.7832,10.787114 2.064,6.7292 3.0673,13.82089 2.9218,20.92383 -0.6991,34.12014 -28.5203,63.71831 -62.0761,63.69141 -30.6774,-0.0246 -56.6763,-25.82766 -55.7891,-57.68555 0.8049,-28.90497 24.4881,-53.948504 52.9531,-53.666024 z m 155.4746,8.20117 c -17.3365,19.870674 -26.5905,45.349804 -27.3144,71.306654 -14.7195,-15.84876 -38.7637,-21.03614 -57.6641,-10.90821 -2.9365,1.57358 -5.6216,3.46797 -8.0332,5.61719 3.6345,-8.22857 5.7561,-17.23048 5.9473,-26.56445 0.1368,-6.67487 -0.6855,-13.33375 -2.4024,-19.72266 24.1812,6.62632 51.0215,4.01656 73.961,-8.908204 5.6085,-3.15998 10.77,-6.80112 15.5058,-10.82032 z m -203.9921,17.449224 c -4.78,8.36953 -7.6521,17.95728 -7.9317,27.9961 -0.9445,33.91577 26.6168,61.27077 59.1992,61.29687 18.6019,0.0149 35.4998,-8.53898 47.5,-21.85742 -3.4877,10.88052 -2.6857,23.19031 3.541,34.0625 6.519,11.38229 18.0458,18.91012 30.2989,20.79688 -27.7383,8.41847 -50.6715,30.23306 -56.9375,59.36328 -0.2231,1.03703 -0.4165,2.07506 -0.5918,3.11328 -1.3726,-4.6608 -3.2625,-9.18947 -5.6563,-13.47071 -16.2625,-29.0844 -53.7484,-41.97886 -82.7402,-26.44335 -3.0724,1.64636 -5.9307,3.56678 -8.5566,5.71679 9.5989,-17.23635 12.0816,-38.7576 5.3964,-58.49023 -10.8148,-31.92248 -41.4446,-50.70412 -72.5312,-49.22071 -7.1738,0.34232 -14.3728,1.76356 -21.3574,4.35157 -41.3094,15.30656 -61.642,64.38914 -46.8828,106.52343 4.8069,13.72301 12.9906,26.06425 23.5585,35.69922 a 1.7405431,1.8036808 0 0 0 0.2696,0.20704 c -6.1753,7.5251 -9.579,17.49548 -8.8477,27.69922 -22.1063,-5.93659 -46.4385,-2.94979 -66.9297,8.6367 -27.8053,15.7223 -44.7209,45.5828 -45.1191,75.6953 -4.9949,-16.6294 -13.6145,-32.3689 -26.0527,-45.9746 -41.517,-45.41389 -114.7842,-51.48467 -160.6719,-8.9375 -5.2459,4.8641 -9.8932,10.2095 -13.9356,15.9102 8.4739,-24.28 9.0787,-51.51001 0.1504,-76.94143 -2.1225,-6.04586 -4.6951,-11.80429 -7.6582,-17.26368 a 1.7718306,1.7718309 0 0 0 0.1797,-0.0117 c 20.2031,-2.09852 39.7898,-9.26509 56.5137,-20.81836 22.8177,-15.76317 38.5844,-38.88266 45.8906,-64.25782 0.3565,36.6086 22.6168,71.80673 57.4961,87.47461 42.9209,19.28014 92.2806,5.25667 121.6563,-28.65625 6.7789,-7.82607 12.4947,-16.71038 16.8203,-26.49023 12.9291,-29.23233 11.8316,-61.13498 0.2129,-88.77149 19.9766,9.87432 42.1606,15.12763 64.4726,15.07227 38.1776,-0.0949 73.7447,-16.17978 99.2442,-42.00977 z m 139.3339,41.30078 c 14.015,-0.27464 28.2213,6.24875 37.3145,17.89063 0.3721,21.68496 6.6937,43.45628 19.2441,62.33203 2.2446,3.37587 4.6397,6.59211 7.1602,9.6582 -8.7431,-5.30627 -18.457,-9.10783 -28.627,-11.10546 -6.1996,-1.21779 -12.4352,-1.69618 -18.6015,-1.53907 0.1921,-0.10176 0.3871,-0.19322 0.5781,-0.29883 16.6032,-9.18029 23.2766,-30.91594 13.1074,-48.05468 -8.8399,-14.8983 -28.508,-21.4258 -43.4238,-12.77149 -12.7167,7.37839 -17.7739,24.3772 -9.4844,37.56836 6.8887,10.96195 21.7583,15.71695 32.7656,8.77344 8.8292,-5.56954 12.2816,-17.88105 5.8125,-27.10547 -4.9266,-7.02487 -15.0882,-10.0281 -22.1445,-4.6875 -2.4728,1.87157 -4.1356,4.68039 -4.6348,7.72656 -0.4992,3.04616 0.2409,6.41845 2.6778,8.99805 1.4745,1.5607 3.5381,2.5893 5.7187,2.81641 2.1805,0.2271 4.6472,-0.55018 5.9864,-2.72266 0.8114,-1.31635 0.7874,-2.62352 0.3593,-4.0332 -0.2141,-0.70481 -0.6046,-1.50652 -1.4804,-2.04883 -0.8758,-0.54229 -2.0836,-0.51004 -2.9766,-0.0977 a 1.8036808,1.7405432 41.483561 0 0 1.0586,3.3711 c -0.011,0.41636 -0.0747,0.99067 -0.0117,0.88281 -0.616,0.99925 -1.4736,1.2579 -2.6934,1.13086 -1.2198,-0.12703 -2.6346,-0.84255 -3.418,-1.67188 -1.6019,-1.69564 -2.0705,-3.78863 -1.7187,-5.93554 0.3518,-2.14687 1.6042,-4.25912 3.3418,-5.57422 5.3013,-4.01242 13.2094,-1.6657 17.043,3.80078 5.2068,7.42458 2.36,17.56462 -4.9004,22.14453 -9.2399,5.82859 -21.9286,1.76876 -27.795,-7.56641 -7.1585,-11.39136 -2.7362,-26.26142 8.3594,-32.69921 13.1462,-7.62761 30.6618,-1.81322 38.5137,11.41992 9.102,15.34014 3.0777,34.96374 -11.8731,43.23047 -17.0418,9.42289 -39.398,1.84132 -49.2167,-15.30274 -11.0432,-19.28183 -3.4095,-43.6713 15.4062,-53.7539 5.8083,-3.11244 12.1605,-4.65013 18.5527,-4.7754 z m -224.7734,5.0918 c 28.419,0.0634 55.7962,17.72483 65.6758,46.88672 11.2563,33.2255 -4.9439,71.85819 -37.5586,83.45703 -28.6525,10.18979 -61.905,-4.90611 -71.6426,-35.17383 -8.4151,-26.15687 4.5194,-56.4458 30.3203,-65.02539 21.828,-7.25849 47.0429,4.45396 53.8594,27.65821 5.6046,19.07939 -4.0684,41.06515 -23.0488,46.60546 -14.9898,4.37546 -32.2295,-3.96205 -36.0938,-20.08984 -2.8697,-11.97673 3.5567,-25.7694 15.6895,-28.21484 4.0492,-0.81616 8.5339,0.044 12.0215,2.23828 3.4876,2.19431 5.961,5.60555 6.3652,10.09375 0.2112,2.34659 -0.5547,5.26873 -2.002,7.29492 -1.4473,2.02618 -3.3125,3.16412 -5.8261,2.72852 -0.3318,-0.0575 -1.8917,-1.07317 -2.4395,-1.96289 -0.2742,-0.44487 -0.2891,-0.75478 -0.2891,-0.76758 0.002,-0.0127 -0.1093,-0.0516 0.4707,-0.30664 a 1.7406426,1.8037839 0 1 0 -1.3613,-3.32032 c -1.3,0.57148 -2.3138,1.70336 -2.5351,2.9961 -0.2215,1.29273 0.2168,2.42328 0.7812,3.33984 1.1287,1.83313 2.7744,3.22925 4.7988,3.58008 3.8715,0.67095 7.1886,-1.32844 9.1973,-4.14062 2.0087,-2.81219 2.9714,-6.42866 2.6699,-9.77735 -0.5131,-5.69934 -3.7645,-10.1622 -8.0234,-12.8418 -4.2589,-2.6796 -9.539,-3.69366 -14.4922,-2.69531 -14.2902,2.88029 -21.7155,18.79526 -18.4023,32.62305 4.3766,18.26559 23.6456,27.59052 40.416,22.69531 20.9864,-6.12585 31.5798,-30.2061 25.4336,-51.1289 -7.4155,-25.24377 -34.6474,-37.89093 -58.2539,-30.04102 -27.7421,9.22512 -41.5647,41.60152 -32.5567,69.60156 5.0057,15.55955 15.808,27.32222 29.0586,34.13281 -2.3389,-0.27372 -4.7293,-0.2992 -7.1367,-0.0332 -8.123,0.89752 -15.2775,4.70424 -20.7559,10.25977 a 1.7405431,1.8036808 0 0 0 -0.2929,-0.33594 c -10.1299,-9.23563 -17.9831,-21.08044 -22.586,-34.2207 -14.1131,-40.28983 5.3571,-87.2858 44.7832,-101.89454 7.7594,-2.8751 15.7986,-4.23845 23.7559,-4.2207 z m -487.8125,61.20899 c 49.7947,0.10583 97.759,29.9673 115.0801,79.30468 19.2877,54.93931 -7.3747,118.58501 -61.9746,139.82231 a 1.7720489,1.7720489 0 0 0 -0.7813,0.3027 c -1.0434,0.3961 -2.0928,0.7835 -3.1562,1.1484 -50.3319,17.2731 -108.72365,-8.3058 -125.841834,-59.6523 -14.8074,-44.4153 7.942694,-95.83148 53.386724,-110.41408 38.49521,-12.35278 82.95141,7.57385 94.98831,47.11524 9.9147,32.56994 -7.1922,70.08934 -40.8301,79.56444 -26.6359,7.5028 -57.26468,-6.7937 -64.1504,-34.5254 -5.13605,-20.685 6.36601,-44.50094 28.1816,-48.74412 7.3468,-1.42896 15.4132,0.062 21.7383,3.90234 6.3252,3.8403 10.8929,9.91328 11.6328,17.84378 0.3988,4.2738 -1.0016,9.4055 -3.7129,13.0683 -2.7112,3.6629 -6.4647,5.8651 -11.3105,5.0547 -1.1818,-0.1976 -3.9179,-2.0285 -5.0762,-3.8437 -0.5787,-0.9076 -0.7597,-1.7101 -0.6777,-2.1739 0.0823,-0.4637 0.2907,-0.9071 1.5547,-1.4433 a 1.7718306,1.7718307 0 1 0 -1.3828,-3.2617 c -1.9969,0.847 -3.3548,2.3647 -3.6602,4.0859 -0.3054,1.7212 0.3049,3.3283 1.1797,4.6992 1.7496,2.742 4.5738,4.9478 7.4785,5.4336 6.2282,1.0416 11.4594,-2.0083 14.7422,-6.4433 3.2828,-4.435 4.8852,-10.2457 4.3945,-15.504 -0.851,-9.12013 -6.2139,-16.22785 -13.3242,-20.54487 -7.1103,-4.31706 -15.985,-5.9595 -24.2519,-4.35156 -24.01196,4.67034 -36.53095,30.57283 -30.9434,53.07613 7.40716,29.8317 40.0985,45.0954 68.5469,37.0821 35.6799,-10.0503 53.7257,-49.6271 43.2597,-84.00784 -12.6467,-41.54489 -59.1532,-62.38884 -99.45894,-49.45508 -47.420174,15.21673 -71.077054,68.68232 -55.666024,114.90822 8.99367,26.9768 28.919984,47.0759 53.166024,58.0351 -18.88821,-1.9549 -38.82873,3.6551 -54.148444,16.5332 -17.48574,-15.5308 -31.04848,-35.3558 -39.0293,-57.3418 -24.70904,-68.0696 9.36712,-147.44711 78.421884,-172.13863 13.59717,-4.86186 27.6825,-7.1644 41.625,-7.13476 z m 537.3613,60.51171 c -7.869,15.60108 -8.2836,34.85979 1.2344,51.47848 10.727,18.7298 32.0922,29.2983 52.3516,26.7579 5.9872,10.4561 9.4298,22.4488 9.8593,34.6757 1.3426,38.2214 -27.8291,73.2399 -65.4394,75.2364 -33.8331,1.7959 -64.2468,-25.0101 -65.1231,-60.293 -0.7799,-31.4006 23.3559,-60.1204 54.3203,-61.3555 27.197,-1.0848 51.6006,20.6642 51.8692,49.1153 0.232,24.5804 -18.874,47.0152 -43.1875,47.4824 -20.5623,0.3951 -38.9749,-16.3062 -38.627,-37.918 0.286,-17.7612 14.3749,-33.9453 32.0254,-33.6308 13.9291,0.2481 26.4025,11.9244 25.418,26.6757 -0.7302,10.9408 -9.8406,20.9647 -20.7871,19.834 -3.6439,-0.3764 -7.2266,-2.2925 -9.6016,-5.0703 -2.3749,-2.7778 -3.5633,-6.3008 -2.7246,-10.1973 0.4345,-2.0188 1.8527,-4.2898 3.5957,-5.6113 1.743,-1.3215 3.5642,-1.7802 5.541,-0.7676 0.1914,0.0981 1.2583,1.3661 1.4766,2.2207 0.1021,0.4002 0.0461,0.6012 0.0586,0.5879 0.0403,-0.0117 0.0135,-0.0108 0,0.0157 -0.002,0.003 8e-4,-0.0166 0,-0.0157 -0.0335,0.01 -0.1053,0.0278 -0.3438,0.0547 a 1.7405432,1.8036809 17.292869 1 0 0.3106,3.5742 c 1.3073,-0.1475 2.5522,-0.8857 3.1172,-1.9941 0.565,-1.1085 0.4826,-2.2391 0.2363,-3.2031 -0.4925,-1.9281 -1.5298,-3.5837 -3.25,-4.4649 -3.2035,-1.641 -6.6651,-0.7918 -9.1777,1.1133 -2.5127,1.9051 -4.3264,4.7788 -4.9727,7.7813 -1.0946,5.0852 0.5251,9.8421 3.4922,13.3125 2.9672,3.4704 7.263,5.771 11.8242,6.2421 13.1357,1.3568 23.8325,-10.3982 24.6895,-23.2382 1.131,-16.9448 -12.9879,-30.1642 -28.7715,-30.4454 -19.7399,-0.3516 -35.3317,17.558 -35.6484,37.2403 -0.3822,23.7372 19.6789,41.9311 42.1152,41.5 26.3588,-0.5065 46.932,-24.669 46.6816,-51.1856 -0.2883,-30.5423 -26.3401,-53.7616 -55.4238,-52.6015 -7.3665,0.2938 -14.3606,2.0493 -20.7773,4.957 6.6578,-9.1134 10.1167,-20.7585 8.8671,-32.58202 -0.7724,-7.30956 -3.2708,-14.32948 -7.166,-20.41993 3.916,-0.53376 7.8144,-1.46878 11.6367,-2.82812 7.6732,-2.72882 14.4781,-6.86833 20.3008,-12.03321 z m -71.2343,12.10157 c 14.4391,-0.0933 27.5784,10.95237 28.7949,26.19922 1.119,14.02419 -8.8929,27.60949 -22.7285,28.84959 -11.6715,1.0461 -22.8126,-7.7167 -23.4766,-19.9824 -0.5437,-10.04447 6.7766,-19.75211 16.7226,-20.27344 7.8067,-0.4092 15.2523,5.63608 15.2813,13.88476 0.0214,6.06178 -4.6142,11.94528 -10.6348,11.74808 -1.9653,-0.0644 -3.9937,-0.9719 -5.3711,-2.3711 -1.3774,-1.3992 -2.1146,-3.1716 -1.8183,-5.24612 0.1425,-0.99822 0.8097,-2.25964 1.6289,-2.97656 0.8192,-0.71692 1.5369,-0.95833 2.4785,-0.55664 -0.1227,-0.0523 0.1385,0.25064 0.3301,0.47461 a 1.7405432,1.8036808 13.27193 0 0 1.2148,3.28711 c 0.9205,-0.16991 1.9007,-0.82023 2.291,-1.74024 0.3907,-0.92002 0.2477,-1.7657 0.0274,-2.42968 -0.4405,-1.32797 -1.117,-2.33684 -2.4883,-2.92188 -2.2093,-0.9425 -4.5379,-0.19874 -6.084,1.1543 -1.5461,1.35304 -2.5629,3.24596 -2.8476,5.24023 -0.4682,3.27837 0.784,6.25217 2.8007,8.30077 2.0167,2.0486 4.7871,3.2902 7.6739,3.3848 8.2203,0.2693 14.3151,-7.4509 14.2871,-15.41604 -0.0369,-10.44699 -9.2316,-17.9184 -18.8906,-17.41211 -12.0329,0.6307 -20.7316,12.16399 -20.084,24.12695 0.7788,14.3883 13.6669,24.524 27.205,23.3106 15.8733,-1.4228 27.2319,-16.8329 25.959,-32.78716 -0.8238,-10.32493 -6.4454,-18.90454 -14.3066,-24.08984 5.6807,1.30684 11.5615,1.7911 17.4512,1.38477 a 1.7405432,1.8036808 13.27193 0 0 0.2558,0.52734 c 4.0122,5.86582 6.5659,12.78241 7.3242,19.95703 2.3233,21.98396 -13.0877,43.36956 -34.6757,46.04296 -19.4014,2.4026 -38.0016,-11.8049 -39.9317,-32.0586 -1.7157,-18.00398 10.9947,-35.48412 28.709,-37.44139 0.971,-0.10729 1.9397,-0.1637 2.9024,-0.16992 z m -57.4942,37.70901 c 7.7188,0.0424 15.4083,1.1266 22.8125,3.2656 2.8597,16.6485 15.9983,29.0078 31.6035,31.9102 3.8113,0.7088 7.7689,0.8536 11.7598,0.3593 2.8176,-0.3489 5.534,-0.9956 8.1348,-1.8906 -9.6913,11.1153 -15.7145,25.6982 -16.1719,41.1035 -1.2581,-6.4469 -3.5046,-12.7657 -6.8477,-18.7441 -16.175,-28.9261 -54.2182,-40.4086 -84.0351,-22.5235 -25.8793,15.5233 -37.0925,49.8575 -21.916,75.7286 12.9133,22.0128 42.4772,30.6568 65.2597,16.1875 18.8811,-11.9915 26.9769,-37.7322 14.9238,-56.6387 -9.6304,-15.1062 -30.7938,-20.9316 -46.5078,-9.7988 -11.8935,8.426 -16.9166,25.7147 -7.8437,37.5839 3.1436,4.1124 7.8993,6.8958 12.9902,7.7051 5.0908,0.8093 10.6074,-0.4341 14.8477,-4.4785 2.4886,-2.3736 4.1856,-5.8096 4.5351,-9.3281 0.3494,-3.5186 -0.8543,-7.2858 -4.2832,-9.377 -1.7815,-1.0864 -3.9919,-1.1247 -6.0898,-0.4765 -1.0489,0.324 -2.1415,0.8938 -2.836,2.0273 -0.6944,1.1336 -0.6774,2.6769 -0.0644,3.9883 a 1.7408431,1.8039917 41.209593 1 0 3.2109,-1.6035 c -0.2801,-0.5991 -0.1684,-0.5734 -0.1523,-0.5996 0.016,-0.0262 0.2498,-0.2594 0.7695,-0.42 1.0394,-0.321 2.9371,-0.0533 3.252,0.1387 2.2523,1.3736 2.9277,3.5364 2.6738,6.0938 -0.254,2.5573 -1.6418,5.3423 -3.4023,7.0214 -3.3604,3.2052 -7.5963,4.1721 -11.7872,3.5059 -4.1908,-0.6662 -8.2484,-3.0441 -10.832,-6.4238 -7.7364,-10.1208 -3.3598,-25.1509 6.9805,-32.4766 13.9202,-9.8619 32.9077,-4.6338 41.541,8.9082 10.9297,17.1444 3.5209,40.7026 -13.7383,51.6641 -20.9882,13.3297 -48.4199,5.3122 -60.3847,-15.084 -14.1415,-24.1066 -3.633,-56.2872 20.5859,-70.8145 28.0235,-16.8093 63.9534,-5.9656 79.207,21.3125 17.362,31.0488 3.7295,71.8818 -27.4668,89.9473 -35.0461,20.2949 -79.4947,6.6146 -98.0176,-27.5586 -20.5873,-37.982 -3.8232,-87.4901 34.3594,-109.0801 13.2103,-7.4695 28.1229,-11.2162 42.9297,-11.1347 z m -202.6074,3.6406 c 31.0305,-0.1954 62.2439,12.4684 84.2402,36.5293 45.1602,49.399 38.4637,127.944 -10.5136,172.2031 -54.4113,49.1694 -140.4667,41.6583 -188.7598,-12.3027 -21.6844,-24.2293 -34.3414,-55.8128 -35.8203,-88.2676 20.5752,-8.1864 37.2526,-22.2004 49.1308,-39.459 -11.321,33.9638 -5.2854,72.9867 20.791,100.6192 33.443,35.4386 91.7401,39.8763 127.5723,5.289 30.4563,-29.3981 34.0808,-80.234 3.4551,-111.0234 -25.3445,-25.48 -68.7504,-28.2933 -94.4785,-1.6074 -20.5136,21.2771 -22.5229,57.2999 0.2597,77.9336 17.186,15.5648 45.9284,16.7828 61.3985,-2.1661 5.3261,-6.5237 8.0762,-15.1212 7.6347,-23.4277 -0.4414,-8.3066 -4.1671,-16.3905 -11.8007,-21.4531 -4.4012,-2.9188 -10.2801,-4.2563 -15.7403,-3.461 -5.4602,0.7953 -10.6209,3.9629 -12.6484,9.9434 -0.9456,2.7891 -0.3386,6.32 1.25,9.1582 0.7943,1.4191 1.923,2.7169 3.584,3.2617 1.661,0.5448 3.6394,0.0659 5.3301,-1.2929 a 1.7718307,1.7718306 0 1 0 -2.2188,-2.7618 c -1.0702,0.8602 -1.5602,0.8344 -2.0078,0.6875 -0.4475,-0.1468 -1.0698,-0.6854 -1.5957,-1.625 -1.0517,-1.8789 -1.3709,-5.1543 -0.9863,-6.289 1.5775,-4.6531 5.2931,-6.9193 9.8027,-7.5762 4.5095,-0.6568 9.6943,0.5359 13.2715,2.9082 6.6378,4.4022 9.828,11.2982 10.2207,18.6875 0.3927,7.3892 -2.1067,15.2024 -6.8399,21 -14.0551,17.2158 -40.48,16.0884 -56.2773,1.7813 -21.1788,-19.1811 -19.2927,-52.9281 -0.0859,-72.8496 24.2557,-25.1585 65.4064,-22.4915 89.416,1.6464 29.1488,29.3046 25.6839,77.8991 -3.4043,105.9766 -34.3389,33.1458 -90.4021,28.8767 -122.5352,-5.1738 -37.1476,-39.3643 -32.0737,-102.9095 6.9473,-139.0899 20.1114,-18.6473 45.6972,-27.6369 71.4082,-27.7988 z m -241.16603,109.2324 c 17.75223,-0.2071 35.27343,6.4509 47.43363,20.2461 20.109,22.8129 18.453,59.2945 -6.0274,79.584 -21.1556,17.5339 -54.08045,16.7834 -71.63474,-3.9805 -14.851254,-17.5666 -13.350444,-45.3269 5.6582,-60.2793 15.62962,-12.2943 39.63419,-11.4873 51.83204,4.0742 9.6332,12.2899 8.2999,31.395 -5.2363,40.9766 -10.05233,7.1155 -25.24389,6.2747 -32.02348,-4.0801 -2.26264,-3.4558 -3.13152,-7.9388 -2.39062,-11.9922 0.7409,-4.0533 2.98937,-7.6168 7.00586,-9.6601 2.09998,-1.0683 5.09863,-1.4441 7.51758,-0.8535 2.41895,0.5905 4.16747,1.8991 4.69726,4.3945 0.0699,0.3294 -0.29364,2.1549 -0.91601,2.9941 -0.31118,0.4197 -0.59277,0.5517 -0.60547,0.5547 -0.0126,0.003 -0.007,0.1215 -0.45899,-0.3222 a 1.7405833,1.8037224 68.181624 1 0 -2.57812,2.4961 c 1.0137,0.9944 2.44416,1.5171 3.72656,1.2421 1.28243,-0.2749 2.16746,-1.1021 2.8086,-1.9667 1.28232,-1.7292 1.96769,-3.7774 1.54101,-5.7872 -0.81601,-3.8435 -3.90636,-6.1784 -7.26367,-6.998 -3.35732,-0.8196 -7.0716,-0.3702 -10.06836,1.1543 -5.10036,2.5946 -8.03667,7.2709 -8.94141,12.2207 -0.90477,4.9497 0.11894,10.2297 2.88672,14.457 7.98512,12.196 25.51912,13.1742 37.12504,4.959 15.3305,-10.8517 16.8243,-32.2054 6.0468,-45.9551 -13.48695,-17.2063 -39.77823,-18.0916 -56.91793,-4.6093 -20.679404,16.2665 -22.301534,46.2481 -6.24024,65.2461 18.87508,22.3262 54.07047,23.1268 76.71677,4.3574 26.0907,-21.6241 27.844,-60.3137 6.4864,-84.543 -4.8244,-5.4731 -10.4479,-9.8665 -16.5684,-13.2324 12.2154,2.1453 24.8853,2.1693 37.3574,-0.1543 a 1.7405432,1.8036808 68.181624 0 0 0.3067,0.5625 c 27.0037,33.5806 23.3181,84.43 -10.4121,113.8789 -32.1584,28.0765 -83.02467,27.4692 -111.240284,-3.7031 -25.38533,-28.0455 -23.58221,-73.2696 6.37109,-98.8828 12.497774,-10.6869 28.342154,-16.2157 44.005864,-16.3985 z"
       id="path7030"
       inkscape:connector-curvature="0" />
  </g>
</svg>
